<svg xmlns="http://www.w3.org/2000/svg" width="86" height="14">
  <path fill-rule="evenodd" fill="#110F10" d="M82.861 14v-3.182H86V14h-3.139zm-6.279-9.545L72.99 11.89c-.113.223-.265.392-.457.506-.192.115-.41.172-.654.172h-.434c-.245 0-.463-.057-.654-.172-.192-.114-.344-.283-.457-.506l-3.798-7.435V14h-2.512V0l2.354.022h.363c.104 0 .196.016.278.048.081.032.155.081.221.148.066.067.13.161.193.282l3.532 7.141c.125.242.246.494.363.755.116.261.227.529.334.803.107-.281.22-.553.339-.817.119-.265.242-.521.367-.77L75.891.5c.062-.121.127-.215.193-.282.066-.067.139-.116.221-.148.082-.032.174-.048.278-.048h.363L79.093 0v14h-2.524l.013-9.545zM49.583 0h8.79v2.545h-5.651v3.182h4.395v2.546h-4.395v3.182h5.651V14h-8.79V0zm-8.79 14h-3.14V2.545h-3.767V0H44.56v2.545h-3.767V14zM27.067 9.16l2.92 4.84h-2.882c-.534 0-.917-.204-1.149-.611l-2.279-3.998c-.101-.178-.219-.305-.354-.382-.135-.076-.325-.114-.569-.114h-.81V14h-3.127V0l4.407.013c.992 0 1.839.183 2.539.389.7.207 1.271.495 1.714.864.442.369.764.805.965 1.308.201.503.302 1.05.302 1.642 0 .452-.06.878-.179 1.279-.12.401-.297.772-.533 1.112-.235.341-.524.644-.866.912-.342.267-.736.486-1.182.658.213.109.413.242.598.401.185.159.347.353.485.582zm-2.02-6.137c-.393-.344-1-.516-1.823-.516h-1.28v3.865h1.28c.434 0 .802-.055 1.107-.167.305-.111.554-.265.749-.463.194-.197.336-.428.424-.692.087-.264.132-.549.132-.854 0-.611-.197-.83-.589-1.173zM10.731 13.804c-.179-.13-.303-.297-.372-.501l-.81-2.504H8.11l2.144-6.364L13.882 14h-2.468c-.276 0-.504-.065-.683-.196zM6.94 2.956c-.084.325-.171.626-.26.911l-.276.822c-.026.068-.051.142-.076.205l-.542 1.627-1.441 4.278h-.013l-.311.962-.554 1.641c-.069.138-.166.268-.313.383-.182.143-.405.215-.668.215H-.001L5.311-.007h2.675L6.962 3.031c-.007-.026-.014-.049-.022-.075z"/>
</svg>
